<?xml version="1.0" encoding="UTF-8"?>
<svg xmlns="http://www.w3.org/2000/svg"
     width="215"
     height="235"
     viewBox="0 0 215 235"
     role="img"
     aria-label="Contorno de Bolivia">
  <path d="M80 13 L61 17 L33 35 L17 34 L31 59 L23 101 L17 100 L12 109 L27 117 L19 132 L36 164 L34 181 L42 192 L48 219 L58 217 L72 204 L93 206 L99 217 L106 204 L123 206 L129 180 L140 166 L173 162 L190 174 L198 146 L194 135 L186 130 L187 115 L159 114 L155 78 L116 57 L96 56 L82 40 Z"
        fill="currentColor"
        fill-rule="evenodd"
        clip-rule="evenodd" />
</svg>
